<?xml version="1.0" standalone="no"?>
<!DOCTYPE svg PUBLIC "-//W3C//DTD SVG 20010904//EN"
 "http://www.w3.org/TR/2001/REC-SVG-20010904/DTD/svg10.dtd">
<svg version="1.0" xmlns="http://www.w3.org/2000/svg"
 width="1280.000000pt" height="680.000000pt" viewBox="0 0 1280.000000 680.000000"
 preserveAspectRatio="xMidYMid meet">
<metadata>
Created by potrace 1.15, written by Peter Selinger 2001-2017
</metadata>
<g transform="translate(0.000000,680.000000) scale(0.100000,-0.100000)"
fill="#000000" stroke="none">
<path d="M2082 6648 c111 -242 117 -258 107 -258 -5 0 -26 36 -46 80 l-36 80
-108 0 -108 0 -3 -82 -3 -83 -166 -3 -166 -2 -6 46 c-6 60 -31 93 -93 124 -46
24 -59 25 -245 28 -124 3 -211 0 -237 -8 -134 -36 -206 -224 -137 -360 26 -51
41 -65 164 -152 125 -89 121 -74 121 -495 l0 -353 -234 0 c-146 0 -237 -4
-241 -10 -3 -5 -20 -10 -36 -10 -17 0 -37 -7 -46 -15 -8 -9 -23 -13 -32 -10
-13 4 -17 0 -17 -17 1 -16 -5 -24 -20 -26 -16 -2 -20 -8 -16 -28 3 -17 0 -24
-12 -24 -18 0 -22 -15 -6 -25 14 -8 13 -48 -2 -63 -9 -9 -7 -13 5 -18 11 -4
17 -17 17 -37 0 -17 3 -27 7 -24 10 10 33 -13 33 -34 0 -13 5 -17 16 -12 10 3
22 0 28 -8 14 -19 17 -19 199 -25 81 -3 147 -6 147 -7 0 -1 -9 -31 -20 -65
-42 -133 -17 -251 113 -542 110 -246 110 -323 6 -566 -33 -76 -118 -274 -189
-439 -70 -165 -146 -343 -169 -395 -73 -171 -201 -481 -301 -725 -53 -132
-120 -296 -148 -365 -28 -69 -85 -212 -126 -318 -74 -187 -76 -196 -76 -279 0
-157 46 -326 126 -464 55 -95 209 -243 314 -301 47 -27 88 -49 93 -51 4 -1 -2
-20 -13 -42 -24 -46 -26 -124 -6 -163 19 -36 65 -78 99 -91 65 -25 152 -1 194
53 l20 25 84 -19 c140 -31 299 -43 469 -37 87 3 167 10 179 16 45 25 36 92
-17 123 -37 21 -145 44 -276 59 l-108 12 70 18 c157 40 302 121 417 234 45 44
96 101 113 127 46 67 106 194 125 263 10 33 60 362 112 730 223 1581 245 1728
269 1808 13 45 30 106 37 136 16 62 58 103 155 148 51 24 71 28 154 28 85 0
102 -3 160 -31 84 -40 169 -118 207 -191 17 -32 45 -103 63 -158 18 -54 48
-125 67 -157 69 -118 204 -237 317 -281 47 -18 91 -20 531 -28 264 -4 578 -8
698 -8 l217 -1 0 -1311 0 -1310 138 6 c75 3 454 15 842 26 565 16 708 23 719
34 12 12 11 21 -7 66 l-22 52 0 1211 0 1212 39 17 c48 21 51 35 51 209 0 109
-3 135 -20 168 -20 39 -20 56 -18 1012 l3 973 23 3 c17 3 22 10 22 33 l0 29
95 0 95 0 0 105 0 105 148 0 c117 0 161 4 217 20 38 11 106 23 150 26 44 3
150 19 236 34 184 34 225 36 1439 50 891 11 1953 25 3010 40 l695 10 17 22
c35 47 53 137 53 268 0 168 -31 250 -97 250 l-28 0 0 123 c0 221 -9 232 -205
247 -77 5 -161 12 -187 15 l-48 6 0 -192 0 -192 -1092 6 c-601 4 -1595 10
-2208 13 -1177 6 -1230 8 -1411 54 -69 18 -111 20 -387 20 -294 0 -310 -1
-327 -20 -10 -11 -15 -28 -12 -40 5 -20 4 -20 -734 -20 l-739 0 -31 48 c-16
26 -35 64 -41 85 l-11 37 -223 0 -223 0 -14 28 c-8 15 -24 57 -36 94 -12 37
-31 78 -42 92 -19 24 -26 26 -104 26 -70 0 -86 3 -97 19 -22 31 -86 69 -128
76 -86 15 -196 -40 -236 -116 l-15 -29 -664 0 -665 0 0 24 c0 29 -36 82 -73
110 -26 19 -42 21 -187 21 -145 0 -161 -2 -187 -21 -37 -28 -73 -81 -73 -110
0 -17 -6 -24 -19 -24 -13 0 -27 19 -48 68 -17 37 -34 77 -37 90 -7 20 -13 22
-81 22 l-73 0 70 -152z m-989 -265 c19 -18 23 -64 7 -93 -5 -10 -26 -24 -45
-30 -30 -10 -40 -9 -60 4 -47 31 -45 104 3 131 30 16 68 12 95 -12z m477 -684
c0 -27 7 -33 73 -65 39 -19 89 -37 110 -40 35 -6 53 -24 23 -24 -37 0 -53
-150 -23 -209 23 -46 22 -51 -13 -51 l-30 0 0 78 0 79 -39 11 c-51 16 -90 48
-107 88 -16 39 -19 179 -4 169 6 -3 10 -20 10 -36z m1413 -26 c-23 -2 -64 -2
-90 0 -26 2 -7 3 42 3 50 0 71 -1 48 -3z m1140 -1527 c128 -41 249 -140 322
-261 79 -131 113 -336 81 -485 -45 -214 -182 -360 -391 -416 -83 -22 -429 -31
-548 -14 -250 35 -418 221 -458 508 -11 79 -6 193 13 272 15 66 81 199 121
245 l35 40 10 -25 c6 -15 10 -98 10 -185 0 -245 38 -362 157 -480 92 -91 227
-148 384 -162 91 -8 89 6 -4 37 -132 44 -268 158 -324 272 -78 159 -58 305 63
466 26 34 68 78 92 98 36 30 42 39 34 54 -6 10 -10 29 -10 41 l0 22 183 -6
c123 -4 197 -10 230 -21z m-3443 -3885 c27 -7 21 -15 -23 -25 -33 -8 -56 -48
-39 -69 7 -8 30 -20 52 -27 52 -17 58 -27 21 -35 -83 -18 -139 82 -83 148 16
18 31 20 72 8z m433 -98 c-13 -2 -35 -2 -50 0 -16 2 -5 4 22 4 28 0 40 -2 28
-4z"/>
</g>
</svg>
